<?xml version="1.0" encoding="utf-8"?>
<!-- Generator: Adobe Illustrator 25.2.3, SVG Export Plug-In . SVG Version: 6.00 Build 0)  -->
<svg version="1.1" id="Capa_1" xmlns="http://www.w3.org/2000/svg" xmlns:xlink="http://www.w3.org/1999/xlink" x="0px" y="0px"
	 viewBox="0 0 300 30.5" style="enable-background:new 0 0 300 30.5;" xml:space="preserve">
<style type="text/css">
	.st0{fill:#FCEE21;}
	.st1{font-family:'PokemonSolidNormal';}
	.st2{font-size:21.1907px;}
	.st3{fill:#0000B2;}
	.st4{font-family:'PokemonHollowNormal';}
</style>
<text transform="matrix(0.9933 0 0 1 2.1662 20.4908)" class="st0 st1 st2">What is your team Pokémon</text>
<text transform="matrix(0.9933 0 0 1 2.1659 20.4905)" class="st3 st4 st2">What is your team Pokémon</text>
<polygon class="st0" points="69.1,17 68.4,18.5 68.4,18.9 69.6,19.3 69.9,17.6 "/>
<path class="st0" d="M70.6,15.8"/>
<path class="st0" d="M68.8,10.9c0,0-0.1,0.9,0.1,1.3c0.2,0.4,1,0.6,1,0.6l0.1-1.5v-0.8L68.8,10.9z"/>
<path class="st0" d="M30.2,13.3"/>
<path class="st0" d="M30.2,13.3c0,0-0.3,0.8-0.3,2c0,0,0.1,2,0.7,3c0.5,0.8,0.9-2.7,0.9-2.7L30.2,13.3z"/>
<polygon class="st0" points="38.5,8.1 39.2,7.8 40.3,10.9 40.3,11.6 38.9,11.6 "/>
<path class="st0" d="M116,11.8c0,0-0.2,1.8,0.2,3s1.4,0,1.4,0l0.9-2.1L116,11.8z"/>
<line class="st0" x1="118.5" y1="14" x2="118.9" y2="15"/>
<path class="st0" d="M127.6,9.5l0.4,0c0,0,0.7,3.4-0.1,5.4c-0.8,2.1-1.4-4.5-1.4-4.5L127.6,9.5z"/>
<path class="st0" d="M174.1,16.4c0,0,0.2,1.6,0.9,2.3c0.7,0.6,1.9-1.1,1.9-1.1l-1.4-1.4L174.1,16.4z"/>
<path class="st0" d="M176.8,15"/>
<polygon class="st0" points="184.4,8.2 184.5,20.3 183.5,18.7 183.1,8.5 "/>
<path class="st0" d="M210.4,35.2"/>
<path class="st0" d="M275.4,13.3c0,0-0.2,0.6-0.3,1.7c0,0-0.2,1.8,0.5,3c0.7,1.2,1.5-0.6,1.5-0.6v-3.2L275.4,13.3z"/>
<path class="st0" d="M281.5,24.9"/>
<path class="st0" d="M256.8,16.5l0.9,1.2c0,0,0,0.4-0.9,1c-0.9,0.6-0.9-1.1-0.9-1.1L256.8,16.5z"/>
<path class="st0" d="M248.7,11.1c0,0-0.4,0.3-0.6,0.7c-0.2,0.3,0.5,0.2,0.5,0.2L248.7,11.1z"/>
<path class="st0" d="M285.2,12.2c0,0,0.4,1,0.1,2.5c-0.3,1.6-1.5-0.2-1.5-0.2L285.2,12.2z"/>
</svg>
